<svg width="32" height="32" viewBox="0 0 32 32" fill="none" xmlns="http://www.w3.org/2000/svg">
<g clip-path="url(#clip0_56_296)">
<path d="M22.713 12.077C22.4317 11.7394 22.0796 11.468 21.6815 11.2818C21.2835 11.0957 20.8494 10.9995 20.41 11H4.242L4.2 10.649C4.11405 9.91942 3.76338 9.24673 3.21449 8.75848C2.6656 8.27022 1.95663 8.00034 1.222 8H1C0.734783 8 0.48043 8.10536 0.292893 8.29289C0.105357 8.48043 0 8.73478 0 9C0 9.26522 0.105357 9.51957 0.292893 9.70711C0.48043 9.89464 0.734783 10 1 10H1.222C1.46693 10 1.70334 10.09 1.88637 10.2527C2.06941 10.4155 2.18634 10.6397 2.215 10.883L3.591 22.583C3.73385 23.7998 4.31848 24.9218 5.23391 25.736C6.14934 26.5502 7.33185 27 8.557 27H19C19.2652 27 19.5196 26.8946 19.7071 26.7071C19.8946 26.5196 20 26.2652 20 26C20 25.7348 19.8946 25.4804 19.7071 25.2929C19.5196 25.1054 19.2652 25 19 25H8.557C7.93806 24.9983 7.3348 24.8051 6.82993 24.4471C6.32507 24.089 5.94331 23.5835 5.737 23H17.657C18.8293 23.0001 19.9643 22.5882 20.8638 21.8364C21.7633 21.0846 22.37 20.0407 22.578 18.887L23.363 14.533C23.4414 14.101 23.4237 13.6571 23.3114 13.2326C23.1991 12.8082 22.9948 12.4137 22.713 12.077ZM21.4 14.178L20.614 18.532C20.4891 19.225 20.1245 19.852 19.5839 20.3032C19.0433 20.7544 18.3612 21.0011 17.657 21H5.419L4.478 13H20.41C20.5569 12.9991 20.7022 13.0306 20.8355 13.0923C20.9689 13.1539 21.087 13.2441 21.1815 13.3566C21.276 13.4691 21.3446 13.601 21.3824 13.7429C21.4201 13.8849 21.4261 14.0334 21.4 14.178Z" fill="white"/>
<path d="M7 32C8.10457 32 9 31.1046 9 30C9 28.8954 8.10457 28 7 28C5.89543 28 5 28.8954 5 30C5 31.1046 5.89543 32 7 32Z" fill="white"/>
<path d="M17 32C18.1046 32 19 31.1046 19 30C19 28.8954 18.1046 28 17 28C15.8954 28 15 28.8954 15 30C15 31.1046 15.8954 32 17 32Z" fill="white"/>
</g>
<rect x="14.5" y="0.5" width="17" height="17" rx="8.5" fill="#D9176C"/>
<rect x="14.5" y="0.5" width="17" height="17" rx="8.5" stroke="white"/>
<path d="M21.3232 13H20.1709V8.40527C20.1709 8.25228 20.1725 8.09928 20.1758 7.94629C20.179 7.79329 20.1823 7.64355 20.1855 7.49707C20.1921 7.35059 20.2002 7.21061 20.21 7.07715C20.1416 7.15202 20.057 7.2334 19.9561 7.32129C19.8584 7.40918 19.7542 7.50033 19.6436 7.59473L18.8232 8.24902L18.2471 7.52148L20.3662 5.86133H21.3232V13ZM27.5059 9.42578C27.5059 10.002 27.4603 10.5179 27.3691 10.9736C27.2812 11.4261 27.1413 11.8102 26.9492 12.126C26.7572 12.4417 26.5065 12.6826 26.1973 12.8486C25.888 13.0146 25.5137 13.0977 25.0742 13.0977C24.5241 13.0977 24.07 12.9528 23.7119 12.6631C23.3538 12.3701 23.0885 11.9502 22.916 11.4033C22.7435 10.8532 22.6572 10.194 22.6572 9.42578C22.6572 8.65755 22.7354 8 22.8916 7.45312C23.0511 6.90299 23.3083 6.48145 23.6631 6.18848C24.0179 5.89551 24.4883 5.74902 25.0742 5.74902C25.6276 5.74902 26.0833 5.89551 26.4414 6.18848C26.8027 6.47819 27.0697 6.89811 27.2422 7.44824C27.418 7.99512 27.5059 8.6543 27.5059 9.42578ZM23.8145 9.42578C23.8145 10.028 23.8535 10.5309 23.9316 10.9346C24.013 11.3382 24.1465 11.641 24.332 11.8428C24.5176 12.0413 24.765 12.1406 25.0742 12.1406C25.3835 12.1406 25.6309 12.0413 25.8164 11.8428C26.002 11.6442 26.1354 11.3431 26.2168 10.9395C26.3014 10.5358 26.3438 10.0312 26.3438 9.42578C26.3438 8.82682 26.3031 8.32552 26.2217 7.92188C26.1403 7.51823 26.0068 7.21549 25.8213 7.01367C25.6357 6.80859 25.3867 6.70605 25.0742 6.70605C24.7617 6.70605 24.5127 6.80859 24.3271 7.01367C24.1449 7.21549 24.013 7.51823 23.9316 7.92188C23.8535 8.32552 23.8145 8.82682 23.8145 9.42578Z" fill="white"/>
<defs>
<clipPath id="clip0_56_296">
<rect width="24" height="24" fill="white" transform="translate(0 8)"/>
</clipPath>
</defs>
</svg>
