<svg width="32" height="32" viewBox="0 0 32 32" fill="none" xmlns="http://www.w3.org/2000/svg">
<g clip-path="url(#clip0_56_290)">
<path d="M17.5 8.91699C16.3739 8.93451 15.2724 9.24885 14.3067 9.82826C13.341 10.4077 12.5453 11.2317 12 12.217C11.4546 11.2317 10.6589 10.4077 9.6932 9.82826C8.7275 9.24885 7.62601 8.93451 6.49996 8.91699C4.7049 8.99498 3.01366 9.78025 1.79574 11.1012C0.577818 12.4222 -0.0677922 14.1715 -4.17093e-05 15.967C-4.17093e-05 22.742 10.956 30.567 11.422 30.899L12 31.308L12.578 30.899C13.044 30.569 24 22.742 24 15.967C24.0677 14.1715 23.4221 12.4222 22.2042 11.1012C20.9863 9.78025 19.295 8.99498 17.5 8.91699ZM12 28.846C8.74696 26.416 1.99996 20.446 1.99996 15.967C1.9316 14.7017 2.36632 13.4607 3.20932 12.5147C4.05232 11.5687 5.23519 10.9943 6.49996 10.917C7.76472 10.9943 8.9476 11.5687 9.7906 12.5147C10.6336 13.4607 11.0683 14.7017 11 15.967H13C12.9316 14.7017 13.3663 13.4607 14.2093 12.5147C15.0523 11.5687 16.2352 10.9943 17.5 10.917C18.7647 10.9943 19.9476 11.5687 20.7906 12.5147C21.6336 13.4607 22.0683 14.7017 22 15.967C22 20.448 15.253 26.416 12 28.846Z" fill="white"/>
</g>
<rect x="14.5" y="0.5" width="17" height="17" rx="8.5" fill="#D9176C"/>
<rect x="14.5" y="0.5" width="17" height="17" rx="8.5" stroke="white"/>
<path d="M21.3232 13H20.1709V8.40527C20.1709 8.25228 20.1725 8.09928 20.1758 7.94629C20.179 7.79329 20.1823 7.64355 20.1855 7.49707C20.1921 7.35059 20.2002 7.21061 20.21 7.07715C20.1416 7.15202 20.057 7.2334 19.9561 7.32129C19.8584 7.40918 19.7542 7.50033 19.6436 7.59473L18.8232 8.24902L18.2471 7.52148L20.3662 5.86133H21.3232V13ZM27.5059 13H22.6719V12.1357L24.5225 10.2607C24.8805 9.89616 25.1751 9.58203 25.4062 9.31836C25.6374 9.05143 25.8083 8.79915 25.9189 8.56152C26.0329 8.32389 26.0898 8.0651 26.0898 7.78516C26.0898 7.4401 25.9906 7.17969 25.792 7.00391C25.5934 6.82487 25.3314 6.73535 25.0059 6.73535C24.6966 6.73535 24.4102 6.7972 24.1465 6.9209C23.8861 7.04134 23.6159 7.21387 23.3359 7.43848L22.7061 6.68164C22.9046 6.51237 23.1162 6.35775 23.3408 6.21777C23.5687 6.0778 23.8226 5.96712 24.1025 5.88574C24.3825 5.80111 24.7015 5.75879 25.0596 5.75879C25.512 5.75879 25.9027 5.84017 26.2314 6.00293C26.5602 6.16243 26.8125 6.38542 26.9883 6.67188C27.1673 6.95833 27.2568 7.29199 27.2568 7.67285C27.2568 8.05697 27.1803 8.41178 27.0273 8.7373C26.8743 9.06283 26.6562 9.38509 26.373 9.7041C26.0898 10.0199 25.7529 10.3633 25.3623 10.7344L24.127 11.9404V11.9941H27.5059V13Z" fill="white"/>
<defs>
<clipPath id="clip0_56_290">
<rect width="24" height="24" fill="white" transform="translate(0 8)"/>
</clipPath>
</defs>
</svg>
